<svg width="1600" height="900" viewBox="0 0 1600 900" fill="none" xmlns="http://www.w3.org/2000/svg">
  <rect width="1600" height="900" fill="#090C16"/>
  <rect width="1600" height="900" fill="url(#night)"/>
  <circle cx="1210" cy="182" r="84" fill="#F1ECCB"/>
  <rect x="80" y="452" width="122" height="448" fill="#111726"/>
  <rect x="240" y="392" width="156" height="508" fill="#141D30"/>
  <rect x="430" y="486" width="128" height="414" fill="#101726"/>
  <rect x="600" y="334" width="182" height="566" fill="#182338"/>
  <rect x="832" y="410" width="136" height="490" fill="#111829"/>
  <rect x="1016" y="298" width="198" height="602" fill="#1A2740"/>
  <rect x="1270" y="446" width="134" height="454" fill="#101726"/>
  <path d="M884 214L970 300L884 386L798 300L884 214Z" fill="#C33143"/>
  <path d="M760 604C804 560 868 560 912 604L948 640L836 752L724 640L760 604Z" fill="#1B1017"/>
  <path d="M764 662C832 642 902 642 970 662" stroke="#C33143" stroke-width="18" stroke-linecap="round"/>
  <defs>
    <linearGradient id="night" x1="800" y1="0" x2="800" y2="900" gradientUnits="userSpaceOnUse">
      <stop stop-color="#10172A"/>
      <stop offset="1" stop-color="#06070E"/>
    </linearGradient>
  </defs>
</svg>
